<svg width="28" height="38" viewBox="0 0 28 38" fill="none" xmlns="http://www.w3.org/2000/svg">
<path d="M12.5167 37.3334C12.3234 37.3331 12.1317 37.2993 11.95 37.2334C11.2289 36.9693 10.7815 36.2466 10.8667 35.4834L12.15 23.6667H2.33337C1.71635 23.6676 1.1493 23.3276 0.859484 22.7829C0.569665 22.2382 0.604503 21.5779 0.950035 21.0667L14.1 1.40003C14.5279 0.766795 15.3317 0.505745 16.05 0.766694C16.7392 1.02254 17.1793 1.69969 17.1334 2.43336L15.85 14.3334H25.6667C26.2837 14.3324 26.8508 14.6725 27.1406 15.2172C27.4304 15.7619 27.3956 16.4222 27.05 16.9334L13.9 36.6C13.5896 37.0593 13.0711 37.3342 12.5167 37.3334Z" fill="white"/>
</svg>
