<svg width="31" height="31" viewBox="0 0 31 31" fill="none" xmlns="http://www.w3.org/2000/svg">
<path fill-rule="evenodd" clip-rule="evenodd" d="M19.0833 2.61668L29.7833 13.3C30.9636 14.4839 30.9636 16.3995 29.7833 17.5833L17.5833 29.7833C17.0165 30.3475 16.2498 30.665 15.45 30.6667C14.6452 30.6658 13.873 30.3485 13.3 29.7833L2.61668 19.0833C2.34253 18.8108 2.17167 18.4514 2.13335 18.0667L0.666681 2.48335C0.621224 1.98911 0.798409 1.50032 1.15001 1.15001C1.50032 0.798409 1.98911 0.621224 2.48335 0.666681L18.0667 2.13335C18.4514 2.17167 18.8108 2.34253 19.0833 2.61668ZM10.5418 13.8433C11.4764 14.2301 12.5519 14.0157 13.2667 13.3V13.2667C14.2285 12.2983 14.2285 10.7351 13.2667 9.76669C12.5519 9.05105 11.4764 8.83659 10.5418 9.22336C9.60726 9.61013 8.99782 10.5219 8.99782 11.5334C8.99782 12.5448 9.60726 13.4566 10.5418 13.8433Z" fill="white"/>
</svg>
