<svg width="34" height="33" viewBox="0 0 34 33" fill="none" xmlns="http://www.w3.org/2000/svg">
<path d="M26.2667 31.9999C26.0001 32.001 25.7372 31.9381 25.5 31.8166L17 27.3666L8.50001 31.8166C7.9369 32.1127 7.25434 32.0624 6.74073 31.6869C6.22712 31.3115 5.97207 30.6763 6.08335 30.0499L7.75001 20.6666L0.883347 13.9999C0.446774 13.5643 0.286487 12.9231 0.46668 12.3333C0.663754 11.729 1.18739 11.2894 1.81668 11.1999L11.3167 9.8166L15.5 1.2666C15.7785 0.691616 16.3611 0.326416 17 0.326416C17.6389 0.326416 18.2215 0.691616 18.5 1.2666L22.7333 9.79993L32.2333 11.1833C32.8626 11.2727 33.3863 11.7123 33.5834 12.3166C33.7635 12.9065 33.6033 13.5476 33.1667 13.9833L26.3 20.6499L27.9667 30.0333C28.0882 30.6713 27.828 31.3217 27.3 31.6999C26.9982 31.9114 26.6348 32.0169 26.2667 31.9999Z" fill="white"/>
</svg>
